<?xml version="1.0" encoding="utf-8"?>
<!-- Generator: Adobe Illustrator 24.0.0, SVG Export Plug-In . SVG Version: 6.00 Build 0)  -->
<svg version="1.1" id="Layer_1" xmlns="http://www.w3.org/2000/svg" xmlns:xlink="http://www.w3.org/1999/xlink" x="0px" y="0px"
	 viewBox="0 0 1903 860" style="enable-background:new 0 0 1903 860;" xml:space="preserve">
<style type="text/css">
	.st0{opacity:0.19;fill:url(#SVGID_1_);}
	.st1{fill:url(#SVGID_2_);}
	.st2{fill:url(#SVGID_3_);}
	.st3{fill:url(#SVGID_4_);}
	.st4{display:none;}
	.st5{display:inline;}
	.st6{fill:url(#SVGID_5_);}
	.st7{fill:none;stroke:#FFFFFF;stroke-width:2;stroke-miterlimit:10;}
	.st8{fill:url(#SVGID_6_);}
</style>
<linearGradient id="SVGID_1_" gradientUnits="userSpaceOnUse" x1="-520.9886" y1="1003.7817" x2="2518.3306" y2="66.2498">
	<stop  offset="0.2501" style="stop-color:#0305DB"/>
	<stop  offset="0.3677" style="stop-color:#0316DF"/>
	<stop  offset="0.6014" style="stop-color:#0243EA"/>
	<stop  offset="0.9265" style="stop-color:#008BFB"/>
	<stop  offset="1" style="stop-color:#009CFF"/>
</linearGradient>
<path style="fill:url(#SVGID_1_);" d="M1.36,843.63c-0.51-0.48-1.02-0.97-1.53-1.48"/>
<linearGradient id="SVGID_2_" gradientUnits="userSpaceOnUse" x1="-167.0933" y1="937.4714" x2="3013.1621" y2="-508.6562">
	<stop  offset="0.2501" style="stop-color:#0305DB"/>
	<stop  offset="0.3593" style="stop-color:#022AE4"/>
	<stop  offset="0.4986" style="stop-color:#0153EE"/>
	<stop  offset="0.6353" style="stop-color:#0173F5"/>
	<stop  offset="0.7669" style="stop-color:#008AFB"/>
	<stop  offset="0.891" style="stop-color:#0097FE"/>
	<stop  offset="1" style="stop-color:#009CFF"/>
</linearGradient>
<path class="st1" d="M1902.47-1.34v860.65c-48.56-18.92-92.91-46.57-142.69-62.96c-40.82-13.43-82.33-26.99-125.27-28.29
	c-86.88-2.62-166.73,44.58-251.5,63.82c-66.86,15.18-137.67,12.62-203.27-7.33c-70.31-21.39-135.87-62.52-209.25-66.48
	c-90.03-4.86-172.97,46.96-261.89,61.87c-179.29,30.06-361.88-91.7-538.44-48.37C108.07,786.8,53.22,824.18-0.17,860.02V-1.34
	H1902.47z"/>
</svg>
