<?xml version="1.0" encoding="utf-8"?>
<!-- Generator: Adobe Illustrator 24.0.0, SVG Export Plug-In . SVG Version: 6.00 Build 0)  -->
<svg version="1.1" id="Layer_1" xmlns="http://www.w3.org/2000/svg" xmlns:xlink="http://www.w3.org/1999/xlink" x="0px" y="0px"
	 viewBox="0 0 220 341.62" style="enable-background:new 0 0 220 341.62;" xml:space="preserve">
<style type="text/css">
	.st0{fill:#CFCFF9;}
	.st1{fill:#6C63FF;}
	.st2{fill:#FFFFFF;}
	.st3{opacity:0.2;enable-background:new    ;}
</style>
<g>
	<rect class="st0" width="220" height="341.62"/>
	<g>
		<path class="st1" d="M146.39,202.45H67.78c-1.28,0-2.31-1.04-2.31-2.31v-63.75c0-1.28,1.04-2.31,2.31-2.31h78.61
			c1.28,0,2.31,1.04,2.31,2.31v63.75C148.7,201.42,147.67,202.45,146.39,202.45z"/>
		<path class="st2" d="M116.05,186.76H75.92c-0.05,0-0.1,0-0.15-0.01l18.98-32.88c0.36-0.64,1.17-0.86,1.81-0.5
			c0.21,0.12,0.38,0.29,0.5,0.5l12.74,22.06l0.61,1.06L116.05,186.76z"/>
		<polygon class="st3" points="116.05,186.76 102.35,186.76 109.08,176.99 109.56,176.29 109.8,175.94 110.41,176.99 		"/>
		<path class="st2" d="M138.4,186.76h-34.71l6.73-9.77l0.48-0.7l8.77-12.73c0.61-0.77,1.73-0.89,2.49-0.28
			c0.05,0.04,0.1,0.08,0.14,0.12c0.05,0.05,0.09,0.1,0.13,0.16L138.4,186.76z"/>
		<circle class="st2" cx="136.02" cy="147.13" r="5.95"/>
	</g>
</g>
</svg>
